<svg xmlns="http://www.w3.org/2000/svg" xmlns:xlink="http://www.w3.org/1999/xlink" version="1.1" x="0px" y="0px" viewBox="0 0 100 125" enable-background="new 0 0 100 100" xml:space="preserve"><g><path d="M25.393,24.686l4.119,2.166l-0.787-4.587l3.334-3.249l-4.606-0.669l-2.06-4.173l-2.06,4.173l-4.606,0.669l3.334,3.249   l-0.787,4.587L25.393,24.686z M24.662,20.174l0.731-1.482l0.731,1.482l1.636,0.238l-1.184,1.154l0.279,1.629l-1.463-0.77   l-1.463,0.77l0.279-1.629l-1.184-1.154L24.662,20.174z"/><path d="M63.762,39.973l-2.369-4.799l-2.369,4.799l-5.297,0.77l3.834,3.736l-0.905,5.275l4.737-2.491l4.737,2.491l-0.905-5.275   l3.834-3.736L63.762,39.973z M63.474,46.097l-2.081-1.094l-2.081,1.094l0.397-2.317l-1.684-1.641l2.326-0.338l1.041-2.109   l1.041,2.109l2.326,0.338l-1.684,1.641L63.474,46.097z"/><path d="M73.901,67.827c4.764-5.391,7.372-12.244,7.372-19.5c0-6.844-2.394-13.492-6.738-18.759l-0.215-1.253L78.746,24   l-6.116-0.889l-2.736-5.543l-2.735,5.543l-0.077,0.011c-1.355-0.825-2.776-1.555-4.244-2.149   c-3.516-1.424-7.238-2.146-11.064-2.146c-16.267,0-29.5,13.234-29.5,29.5c0,7.277,2.607,14.112,7.373,19.5h-0.812l-1.125,18h48.129   l-1.125-18H73.901z M69.893,22.086l1.408,2.853l3.147,0.458l-2.277,2.22l0.537,3.135l-2.815-1.48l-2.815,1.48l0.537-3.135   l-2.277-2.22l3.148-0.458L69.893,22.086z M24.273,48.327c0-15.164,12.337-27.5,27.5-27.5c3.568,0,7.038,0.673,10.314,2   c0.575,0.233,1.136,0.503,1.695,0.775L61.041,24l4.426,4.315l-1.045,6.092l5.472-2.876l5.472,2.876l-0.043-0.25   c2.558,4.254,3.951,9.152,3.951,14.169c0,7.345-2.86,14.251-8.055,19.446l0.054,0.054H32.391   C27.157,62.627,24.273,55.721,24.273,48.327z M29.837,83.827l0.875-14h42.121l0.875,14H29.837z"/><path d="M47.326,25.174c-0.465,0.081-0.924,0.175-1.379,0.282l0.461,1.946c0.416-0.099,0.836-0.184,1.26-0.258   c0.896-0.156,1.815-0.255,2.734-0.296l-0.088-1.998C49.31,24.895,48.304,25.004,47.326,25.174z"/><path d="M42.146,27.092c-0.572,0.272-1.135,0.568-1.672,0.88c-0.217,0.125-0.431,0.253-0.644,0.385   c-5.497,3.419-9.377,9.002-10.646,15.318l1.961,0.394c1.16-5.777,4.711-10.885,9.74-14.013c0.194-0.12,0.391-0.238,0.59-0.353   c0.491-0.285,1.006-0.556,1.528-0.805c0.39-0.185,0.786-0.359,1.189-0.521l-0.746-1.855C43.007,26.698,42.574,26.889,42.146,27.092   z"/></g></svg>