<svg xmlns="http://www.w3.org/2000/svg" xmlns:xlink="http://www.w3.org/1999/xlink" version="1.1" x="0px" y="0px" viewBox="0 0 40 50" enable-background="new 0 0 100 100" xml:space="preserve"><g><path d="M29.106,43.362c7.881,0,14.292-6.411,14.292-14.292s-6.411-14.292-14.292-14.292c-7.88,0-14.292,6.411-14.292,14.292  S21.226,43.362,29.106,43.362z M29.106,16.778c6.778,0,12.292,5.515,12.292,12.292s-5.514,12.292-12.292,12.292  c-6.777,0-12.292-5.515-12.292-12.292S22.329,16.778,29.106,16.778z"/><path d="M69.152,43.5c5.415,0,9.819-4.405,9.819-9.819s-4.405-9.819-9.819-9.819s-9.819,4.405-9.819,9.819S63.737,43.5,69.152,43.5z   M69.152,25.861c4.312,0,7.819,3.508,7.819,7.819S73.463,41.5,69.152,41.5s-7.819-3.508-7.819-7.819S64.84,25.861,69.152,25.861z"/><path d="M68.208,64.273h-41.25c-0.552,0-1,0.447-1,1v15.846c0,0.553,0.448,1,1,1h41.25c0.552,0,1-0.447,1-1V65.273  C69.208,64.72,68.761,64.273,68.208,64.273z M67.208,80.119h-39.25V66.273h39.25V80.119z"/><path d="M89,48.485h-3.719c-2.195,0-4.032,1.558-4.468,3.625h-2.807v-6.977c3.425-2.654,5.642-6.794,5.642-11.452  c0-7.992-6.503-14.495-14.496-14.495S54.656,25.688,54.656,33.68c0,1.991,0.404,3.889,1.134,5.617H45.217  c1.886-2.961,2.995-6.464,2.995-10.228c0-10.535-8.571-19.106-19.106-19.106S10,18.535,10,29.07c0,5.611,2.446,10.648,6.309,14.147  c-0.01,0.055-0.033,0.106-0.033,0.164v45.584c0,0.553,0.448,1,1,1h59.729c0.552,0,1-0.447,1-1V80.61h2.807  c0.436,2.067,2.273,3.625,4.468,3.625H89c0.552,0,1-0.447,1-1v-33.75C90,48.932,89.552,48.485,89,48.485z M69.152,21.185  c6.89,0,12.496,5.605,12.496,12.495c0,6.891-5.605,12.496-12.496,12.496S56.656,40.571,56.656,33.68  C56.656,26.791,62.262,21.185,69.152,21.185z M12,29.07c0-9.433,7.674-17.106,17.106-17.106s17.106,7.674,17.106,17.106  s-7.674,17.106-17.106,17.106S12,38.502,12,29.07z M18.276,87.964V44.793c3.081,2.129,6.81,3.383,10.83,3.383  c5.887,0,11.156-2.679,14.664-6.879h13.072c2.559,4.121,7.113,6.879,12.31,6.879c2.478,0,4.811-0.627,6.854-1.728v41.516H18.276z   M78.005,54.11h2.707v24.5h-2.707V54.11z M88,82.235h-2.719c-1.417,0-2.569-1.152-2.569-2.568V53.053  c0-1.416,1.152-2.568,2.569-2.568H88V82.235z"/><path d="M24.19,33.986c0.195,0.195,0.451,0.293,0.707,0.293s0.512-0.098,0.707-0.293l3.502-3.502l3.502,3.502  c0.195,0.195,0.451,0.293,0.707,0.293s0.512-0.098,0.707-0.293c0.391-0.391,0.391-1.023,0-1.414L30.52,29.07l3.502-3.502  c0.391-0.391,0.391-1.023,0-1.414s-1.023-0.391-1.414,0l-3.502,3.502l-3.502-3.502c-0.391-0.391-1.023-0.391-1.414,0  s-0.391,1.023,0,1.414l3.502,3.502l-3.502,3.502C23.799,32.962,23.799,33.595,24.19,33.986z"/><path d="M65.63,36.8c0.195,0.195,0.451,0.293,0.707,0.293s0.512-0.098,0.707-0.293l2.108-2.108L71.26,36.8  c0.195,0.195,0.451,0.293,0.707,0.293s0.512-0.098,0.707-0.293c0.391-0.391,0.391-1.023,0-1.414l-2.108-2.108l2.108-2.108  c0.391-0.391,0.391-1.023,0-1.414s-1.023-0.391-1.414,0l-2.108,2.108l-2.108-2.108c-0.391-0.391-1.023-0.391-1.414,0  s-0.391,1.023,0,1.414l2.108,2.108l-2.108,2.108C65.239,35.777,65.239,36.41,65.63,36.8z"/><path d="M29.817,60.015h4.865c2.128,0,3.859-1.731,3.859-3.859s-1.731-3.858-3.859-3.858h-4.865c-2.128,0-3.859,1.73-3.859,3.858  S27.689,60.015,29.817,60.015z M29.817,54.297h4.865c1.025,0,1.859,0.834,1.859,1.858c0,1.025-0.834,1.859-1.859,1.859h-4.865  c-1.025,0-1.859-0.834-1.859-1.859C27.958,55.131,28.792,54.297,29.817,54.297z"/><path d="M45.9,60.015c2.128,0,3.859-1.731,3.859-3.859s-1.731-3.858-3.859-3.858s-3.859,1.73-3.859,3.858S43.772,60.015,45.9,60.015  z M45.9,54.297c1.025,0,1.859,0.834,1.859,1.858c0,1.025-0.834,1.859-1.859,1.859s-1.859-0.834-1.859-1.859  C44.042,55.131,44.875,54.297,45.9,54.297z"/><path d="M32.468,71.792h10.148c0.552,0,1-0.447,1-1s-0.448-1-1-1H32.468c-0.552,0-1,0.447-1,1S31.916,71.792,32.468,71.792z"/><path d="M32.468,76.599h10.148c0.552,0,1-0.447,1-1s-0.448-1-1-1H32.468c-0.552,0-1,0.447-1,1S31.916,76.599,32.468,76.599z"/></g></svg>